#!OML:ASF F:\VICON\USERDATA\INSTALL\rory3\rory3.ASF
:FULLY-SPECIFIED
:DEGREES
632
root 0.203514 16.9014 36.1138 8.47602 -5.15151 3.51063
lowerback -9.51337 0.694494 -1.53047
upperback -5.06188 1.04508 -0.702774
thorax 0.0689934 0.539078 0.232153
lowerneck -15.2838 -2.74397 -6.56505
upperneck 29.3287 -3.43017 4.22917
head 12.4316 -1.72511 2.2192
rclavicle 1.49089e-016 -2.78299e-015
rhumerus -43.7448 2.64933 -88.7408
rradius 29.25
rwrist 4.15422
rhand -26.7601 -46.3796
rfingers 7.12502
rthumb -0.188345 -76.3593
lclavicle 1.49089e-016 -2.78299e-015
lhumerus -38.9662 -6.40793 87.0596
lradius 33.1162
lwrist 9.80118
lhand -34.641 -29.531
lfingers 7.12502
lthumb -7.79829 0.305165
rfemur -26.1833 2.30497 14.8729
rtibia 73.8201
rfoot 1.9729 -9.18127
rtoes -13.6785
lfemur -25.613 -4.62544 -28.5393
ltibia 33.2005
lfoot -15.0332 5.26547
ltoes 2.18507
633
root 0.217227 16.8918 36.1984 8.08939 -4.75188 3.31443
lowerback -9.00467 0.535414 -1.2423
upperback -4.74558 0.806217 -0.611516
thorax 0.125245 0.414609 0.139108
lowerneck -15.4217 -2.73366 -6.71876
upperneck 29.1805 -3.3786 4.30479
head 12.4019 -1.70658 2.27946
rclavicle 6.53505e-015 6.95746e-015
rhumerus -43.2351 2.42197 -88.5413
rradius 29.4654
rwrist 4.19799
rhand -26.905 -46.4138
rfingers 7.12502
rthumb -0.328379 -76.3933
lclavicle 6.53505e-015 6.95746e-015
lhumerus -38.1322 -6.49814 87.0787
lradius 33.3315
lwrist 9.68015
lhand -34.3505 -29.1845
lfingers 7.12502
lthumb -7.51786 0.66189
rfemur -27.1891 1.88369 15.1998
rtibia 74.4254
rfoot 1.14669 -10.3419
rtoes -12.7008
lfemur -25.0559 -4.97947 -28.4296
ltibia 33.6355
lfoot -15.413 5.56297
ltoes 1.70966
634
root 0.22262 16.8645 36.1789 8.0672 -4.29593 1.91059
lowerback -7.3534 0.429907 0.0929002
upperback -4.86758 0.560516 -0.163202
thorax -0.896795 0.273832 -0.184002
lowerneck -16.0559 -2.83347 -6.63785
upperneck 29.3643 -3.48337 4.21818
head 12.6133 -1.74959 2.2148
rclavicle 1.0635e-014 9.93923e-016
rhumerus -42.8225 2.19924 -88.3705
rradius 29.6655
rwrist 4.399
rhand -26.9697 -46.4939
rfingers 7.12502
rthumb -0.390817 -76.4733
lclavicle 1.0635e-014 9.93923e-016
lhumerus -37.3207 -6.79035 87.195
lradius 33.3061
lwrist 9.66617
lhand -34.5847 -29.1605
lfingers 7.12502
lthumb -7.74398 0.677725
rfemur -29.3226 1.9372 17.1153
rtibia 75.1476
rfoot 0.331913 -11.7945
rtoes -12.75
lfemur -25.3906 -5.28241 -26.7765
ltibia 34.1047
lfoot -15.3531 5.52668
ltoes 1.95389
635
root 0.23469 16.8697 36.331 8.05435 -4.04207 2.34366
lowerback -8.14412 0.246866 -0.276362
upperback -4.64109 0.342727 -0.243864
thorax -0.229557 0.171253 -0.0692525
lowerneck -14.9699 -2.46724 -6.85908
upperneck 28.4842 -3.08456 4.70721
head 12.0175 -1.53848 2.49194
rclavicle 1.18525e-014 -1.80894e-014
rhumerus -42.6582 2.38002 -88.4219
rradius 29.8572
rwrist 3.97089
rhand -27.5598 -46.4199
rfingers 7.12502
rthumb -0.96072 -76.3975
lclavicle 1.18525e-014 -1.80894e-014
lhumerus -36.705 -7.31426 87.4578
lradius 33.1551
lwrist 9.79547
lhand -34.8839 -28.8169
lfingers 7.12502
lthumb -8.03274 1.01044
rfemur -30.2854 1.45768 16.5781
rtibia 75.3046
rfoot -0.770902 -12.4443
rtoes -10.7787
lfemur -24.786 -5.59312 -27.3922
ltibia 34.3523
lfoot -16.1129 5.52137
ltoes 3.13216
636
root 0.239278 16.8758 36.5125 7.64815 -3.918 2.79973
lowerback -8.75697 0.114735 -0.754358
upperback -4.32927 0.209017 -0.321213
thorax 0.428045 0.109646 0.111453
lowerneck -15.2998 -2.54685 -6.25773
upperneck 28.8547 -3.08013 3.78877
head 12.2073 -1.58823 2.04415
rclavicle -8.52289e-015 -6.36111e-015
rhumerus -42.7282 2.51892 -88.4578
rradius 30.2304
rwrist 3.64482
rhand -27.9646 -46.1682
rfingers 7.12502
rthumb -1.35173 -76.1436
lclavicle -8.52289e-015 -6.36111e-015
lhumerus -36.2506 -7.64499 87.6394
lradius 33.0652
lwrist 9.63533
lhand -34.8247 -28.8899
lfingers 7.12502
lthumb -7.97554 0.939664
rfemur -30.4727 1.1398 16.0386
rtibia 75.1378
rfoot -2.36087 -13.1184
rtoes -10.213
lfemur -23.5948 -5.68925 -28.1035
ltibia 34.5194
lfoot -16.9796 5.60557
ltoes 3.69415
637
root 0.204074 16.8569 36.6007 7.47644 -4.2589 2.64312
lowerback -8.33185 0.139527 -1.25854
upperback -4.33497 0.27152 -0.118518
thorax 0.183988 0.151434 0.607132
lowerneck -15.3296 -2.52288 -5.9661
upperneck 28.9968 -2.99784 3.35546
head 12.253 -1.57642 1.84313
rclavicle -8.87077e-015 -2.38542e-014
rhumerus -42.7745 2.53169 -88.4666
rradius 30.6019
rwrist 3.56114
rhand -27.6149 -46.3761
rfingers 7.12502
rthumb -1.01394 -76.3534
lclavicle -8.87077e-015 -2.38542e-014
lhumerus -35.7738 -8.37423 87.9536
lradius 32.8519
lwrist 9.65258
lhand -34.8014 -29.2526
lfingers 7.12502
lthumb -7.95307 0.577744
rfemur -31.8577 1.93606 16.5739
rtibia 75.0639
rfoot -3.42151 -14.3455
rtoes -9.40677
lfemur -23.182 -5.35004 -27.846
ltibia 34.4845
lfoot -17.1979 5.6549
ltoes 3.5932
638
root 0.221651 16.8484 36.6974 7.46472 -3.9359 2.66858
lowerback -8.00311 -0.0073105 -1.10173
upperback -4.5201 0.0596009 -0.134315
thorax -0.18367 0.0454354 0.484743
lowerneck -14.4918 -2.27548 -6.44648
upperneck 28.5434 -2.79743 4.17337
head 11.907 -1.43944 2.26378
rclavicle -1.64991e-014 -1.63003e-014
rhumerus -43.017 2.76648 -88.6355
rradius 30.7808
rwrist 3.31787
rhand -26.9708 -46.6326
rfingers 7.12502
rthumb -0.391869 -76.612
lclavicle -1.64991e-014 -1.63003e-014
lhumerus -35.5445 -9.62762 88.503
lradius 32.6739
lwrist 10.3953
lhand -34.5863 -28.5727
lfingers 7.12502
lthumb -7.7455 1.2654
rfemur -32.9821 1.65017 16.5308
rtibia 74.7601
rfoot -4.64758 -14.8921
rtoes -8.41979
lfemur -22.7965 -5.53384 -28.0083
ltibia 34.6134
lfoot -17.6418 5.62438
ltoes 3.74494
639
root 0.270515 16.8372 36.7637 7.39085 -3.1308 2.55476
lowerback -7.12915 -0.281308 -0.348349
upperback -4.8098 -0.359908 -0.165745
thorax -0.962181 -0.176974 0.00296979
lowerneck -14.2496 -2.28428 -6.42406
upperneck 28.8623 -2.76836 3.92375
head 11.978 -1.46208 2.17568
rclavicle -3.47873e-015 -3.97569e-016
rhumerus -43.3322 3.06395 -88.7488
rradius 31.0554
rwrist 3.23425
rhand -27.7452 -45.8684
rfingers 7.12502
rthumb -1.13984 -75.8451
lclavicle -3.47873e-015 -3.97569e-016
lhumerus -35.3689 -10.371 88.9163
lradius 32.6541
lwrist 10.9138
lhand -33.4031 -26.8451
lfingers 7.12502
lthumb -6.60337 3.03197
rfemur -33.9318 0.64992 16.4768
rtibia 74.3777
rfoot -5.71088 -15.1024
rtoes -7.95615
lfemur -22.5006 -6.06428 -28.1596
ltibia 34.9876
lfoot -18.0668 5.70898
ltoes 3.15387
